<svg xmlns="http://www.w3.org/2000/svg" viewBox="0 0 392.76 198.5"><defs><style>.cls-1{fill:#fff;}</style></defs><title>4</title><g id="Capa_2" data-name="Capa 2"><g id="Capa_1-2" data-name="Capa 1"><path class="cls-1" d="M293.51,68A8.92,8.92,0,0,0,296,69.1a5.5,5.5,0,0,1,1.27.35c.23.11.28.34.17.69s-.33,1-.63,2.13c-.23.68-.45,1-.64,1.09l-.8.17a4.28,4.28,0,0,0-1.44.8,12.25,12.25,0,0,0-2.41,3.11l-8.51,16.9-2.19-1.14c-.23,1.22-.23,2,0,2.29a.92.92,0,0,0,.69.46,3.1,3.1,0,0,0,.63,0c.19,0,.16.21-.11.74s-.83,1.5-1.67,2.88l-3.79,6.21L268.56,123a11.58,11.58,0,0,1-1.9,3c-.58.57-1.11,1.07-1.61,1.49a8.88,8.88,0,0,0-1.5,1.73A14.76,14.76,0,0,0,262,133a17.16,17.16,0,0,1-1.78,4.09q-1.44,2.58-3.51,5.63t-4.48,6.21c-1.61,2.11-3.19,4-4.72,5.81s-3,3.28-4.31,4.54A9.28,9.28,0,0,1,240,161.5a10,10,0,0,1-4.32.75,10.48,10.48,0,0,1-3.33-.86,27.06,27.06,0,0,1-3-1.61,15.12,15.12,0,0,0-3.33-1.5c.23-1.53.4-2.51.51-2.93s.14-.63.06-.63a.8.8,0,0,0-.4.23c-.19.15-.44,0-.75-.34a9.27,9.27,0,0,1-1.09-2.31,36.63,36.63,0,0,1-1.32-5.63,32.74,32.74,0,0,1-.69-5.58,54.37,54.37,0,0,1,0-5.57c.12-1.85.29-3.65.52-5.41s.42-3.53.58-5.29a22,22,0,0,0-5.35,4.77Q215.19,133,212,137t-6.55,7.94a47.48,47.48,0,0,1-6.79,6.61,15.87,15.87,0,0,1-6.67,3.28,7.43,7.43,0,0,1-6.38-2,15.64,15.64,0,0,1-4.2-5.18,7,7,0,0,1-.4-4.2,16.5,16.5,0,0,1,1.61-4.14,17.91,17.91,0,0,0,1.73-5l1.15-3.22c.61-1.38,1.09-2.49,1.43-3.33a20.88,20.88,0,0,1,1.79-3.23l7.47-15.64a13.38,13.38,0,0,1,1.55-2.7,16.9,16.9,0,0,0,1.21-1.61,14,14,0,0,0,1.21-2.41q.63-1.56,1.67-5l6.32-15a14.74,14.74,0,0,0,1-2.35,3.08,3.08,0,0,1,.8-1.44,2.42,2.42,0,0,1,1.5-.52,12.62,12.62,0,0,1,3,.4l4.14.7q4.83.57,5.86,2.18a3.46,3.46,0,0,1,.35,3.33,13.26,13.26,0,0,1-3.34,4.49A50.19,50.19,0,0,0,218,94.75q-2,3.61-3.85,7.47t-3.51,7.25q-1.62,3.39-2.53,5a8.51,8.51,0,0,1-2.13,2.76c-.65.46-1.21.84-1.67,1.15a4.64,4.64,0,0,0-1.21,1.21,7.74,7.74,0,0,0-.86,2.81c-.23,1.31-.46,2.42-.69,3.34s-.46,1.76-.69,2.53-.44,1.53-.63,2.3a10.53,10.53,0,0,0-.29,2.53l17.94-14.72a34.79,34.79,0,0,0,3.74-4.2,18.38,18.38,0,0,1,4.25-4.08,10,10,0,0,1,5.58-1.67c2.15,0,4.79.94,7.94,2.94a16.44,16.44,0,0,1-.29,4.77q-.52,2.7-1.32,5.52T236,127c-.61,1.69-1.11,3.07-1.49,4.14a17.8,17.8,0,0,0-1.38,4.83q-.46,2.88-1,5.06a31.34,31.34,0,0,0-.74,5.47,20.64,20.64,0,0,0,.63,6.27,6.72,6.72,0,0,0,3.27-1.15,14.92,14.92,0,0,0,2.88-2.54,30.71,30.71,0,0,0,2.41-3.1c.73-1.07,1.36-2,1.9-2.87a7.35,7.35,0,0,1,1.67-2.19,15.74,15.74,0,0,1,1.32-.92,4.72,4.72,0,0,0,1-.86,6.11,6.11,0,0,0,.92-2q.34-.8,2.18-4.19t4.6-8.51q2.76-5.11,6.1-11.5t6.61-13q3.27-6.68,6-13.29t4.48-12.13a3.23,3.23,0,0,0,.75-1c.34-.61.69-1.26,1-2s.69-1.34,1-2a5.65,5.65,0,0,1,.75-1.14,4.16,4.16,0,0,1,2.3-2.42,8.15,8.15,0,0,1,3.79-.35A18.46,18.46,0,0,1,293.51,68Zm-43,67.39c.46.46.75.67.86.63s.14-.17.06-.4a1.93,1.93,0,0,0-.34-.63c-.16-.19-.27-.25-.35-.18Z"/><path class="cls-1" d="M282.93,120.33a32.83,32.83,0,0,0,2.42-4.94q1-2.64,2-5.18a35.66,35.66,0,0,1,2.13-4.59,9.73,9.73,0,0,1,2.7-3.23,5.75,5.75,0,0,1,3.68-1.09A12.07,12.07,0,0,1,301,103a60.22,60.22,0,0,1-3,6.84c-1.23,2.42-2.46,4.58-3.68,6.5q-6.21,11.61-9.49,18.8t-4.89,11.33q-1.6,4.14-2.13,6a6.94,6.94,0,0,1-1.2,2.64,31.61,31.61,0,0,1-4.6-3.5,6.73,6.73,0,0,1-2-3.28,6.93,6.93,0,0,1,.29-3.8c.46-1.37,1.15-3.1,2.07-5.17l9.55-17.14c.3-.46.51-.8.63-1Zm30.36-49.68a5,5,0,0,1,.29,2.82,7,7,0,0,1-1.09,2.36,20.26,20.26,0,0,1-1.9,2.3,22,22,0,0,0-2.13,2.65c-.38.53-.88,1.26-1.49,2.18s-1.27,1.84-2,2.76-1.34,1.74-1.95,2.47a6.15,6.15,0,0,1-1.38,1.33c-.92.38-1.48.22-1.67-.47a7.43,7.43,0,0,1,0-2.93,27.46,27.46,0,0,1,1.09-4.37c.54-1.65,1.09-3.26,1.67-4.83s1.11-3,1.61-4.2.82-2.07,1-2.52q1.72-.58,2.7-.81a5.52,5.52,0,0,1,1.67-.17,4.29,4.29,0,0,1,1.43.4C311.66,69.85,312.37,70.2,313.29,70.65Z"/><path class="cls-1" d="M336.41,64.79a15,15,0,0,1,3.22,1A7.25,7.25,0,0,1,342,67.55a3.31,3.31,0,0,1,.81,2.53q-6.21,10-11.22,18.46t-9.48,16.73q-4.48,8.28-8.92,17.08t-9.6,19.37a13.17,13.17,0,0,0,3.91-1c1.46-.58,2.93-1.25,4.43-2s3-1.53,4.43-2.29a40.88,40.88,0,0,1,3.91-1.85,17.3,17.3,0,0,1-2.13,2.48c-1,1-2,1.93-3.16,2.93l-3.34,2.87c-1.07.92-1.92,1.65-2.53,2.19q-2.19,2.07-3.91,3.74a31.2,31.2,0,0,1-3.39,2.87,11.87,11.87,0,0,1-3.51,1.78,12.07,12.07,0,0,1-4.25.46c-.85-1.84-1.46-3.29-1.84-4.37a7.88,7.88,0,0,1-.52-3,8,8,0,0,1,.8-3.05q.75-1.6,2-4.25,9-15.42,16.9-32.21t15.41-33.12l6.33-9.66C334.18,64.37,335.26,64.56,336.41,64.79Z"/><path class="cls-1" d="M379.19,66.05a7.18,7.18,0,0,1,2.93-1,17.36,17.36,0,0,1,4-.12,26,26,0,0,1,3.91.63,8,8,0,0,1,2.76,1.15c-1.61,2.92-2.92,5.29-3.91,7.13s-1.84,3.36-2.54,4.55-1.28,2.2-1.78,3-1,1.67-1.49,2.48-1.1,1.72-1.78,2.76-1.58,2.39-2.65,4.08q-3.8,5.86-6,9.54t-3.39,6c-.81,1.57-1.44,2.9-1.9,4s-1,2.2-1.49,3.39-1.23,2.63-2.08,4.31-2.1,3.92-3.79,6.67l-2.3,3.57c-.69,1.07-1.36,2.15-2,3.22s-1.29,2.21-1.9,3.39-1.23,2.51-1.84,4l-4.71,9.2a23.19,23.19,0,0,0-2.13,6.78c-.35,2.3-.65,4.51-.92,6.62a27.67,27.67,0,0,1-1.27,5.63,7.11,7.11,0,0,1-3.16,3.86q-4.37-3.1-5.46-5.75a9.41,9.41,0,0,1-.58-5.41,27.83,27.83,0,0,1,1.9-5.92,28.14,28.14,0,0,0,2-7.42,18.88,18.88,0,0,0-3.34,2.13,13.67,13.67,0,0,1-4.54,2.24,8.3,8.3,0,0,1-5.24-.35c-1.83-.68-3.56-2.52-5.17-5.51a11.8,11.8,0,0,1-1.26-8.51,22,22,0,0,1,3.56-7.54,49.17,49.17,0,0,1,5.63-6.5,58.09,58.09,0,0,0,4.95-5.28,2.28,2.28,0,0,0,.58-.58,4.2,4.2,0,0,1,.46-.69c.07-.08.11-.13.11-.17a.54.54,0,0,1,.12-.23,9.4,9.4,0,0,1,.69-.87,69,69,0,0,1,6.55-6,8.85,8.85,0,0,1,4.37-2,7.34,7.34,0,0,1,4,.86c1.34.69,3.12,1.54,5.35,2.53Zm-52.67,76.82a26.49,26.49,0,0,0,7.41-5.11,72.38,72.38,0,0,0,7.19-7.88q3.45-4.36,6.5-9t5.23-8.39c-1.84,1-3.16,1.66-4,2a5.26,5.26,0,0,1-1.72.51,1.45,1.45,0,0,1-.58-.05s-.23.09-.57.4-.92.86-1.73,1.67-2.12,2.09-4,3.85a34.68,34.68,0,0,1-3.73,2.76,30.87,30.87,0,0,0-5.12,4.37,21.3,21.3,0,0,0-4.14,6.33A14.78,14.78,0,0,0,326.52,142.87Z"/><path class="cls-1" d="M33.86,69a20.5,20.5,0,0,1,6.9-2.24A59.81,59.81,0,0,1,61.92,67a23.89,23.89,0,0,1,9,3.45A17.18,17.18,0,0,1,76,75.6a19.35,19.35,0,0,1,2.53,6.56,26.7,26.7,0,0,1,.29,7.7,71.84,71.84,0,0,1-1.44,8.74,40.36,40.36,0,0,1-2,5.12q-1.78,4.08-4.77,9.83t-7,12.42a120.31,120.31,0,0,1-8.91,12.82A97.21,97.21,0,0,1,44.27,150a39,39,0,0,1-11.33,7.42A22.14,22.14,0,0,1,21,158.86q-6-.93-12-6.67a26,26,0,0,1-7.36-11.5A39,39,0,0,1,.05,127.35a63.82,63.82,0,0,1,2.3-13.92q1.95-7,4.37-13.45a26.74,26.74,0,0,1,2-4.37,32.13,32.13,0,0,0,1.9-3.68,21.46,21.46,0,0,0,1-2.93c.11-.58.21-1,.29-1.38a3.49,3.49,0,0,1,.57-1.21,30,30,0,0,1,2-2.42q2.07-2.42,3.27-2.75a16.46,16.46,0,0,1,2.36-.52,7.5,7.5,0,0,0,2.76-1.21,25.42,25.42,0,0,0,4.72-4.83c.61-.77,1.13-1.4,1.55-1.9a11.38,11.38,0,0,1,1.21-1.26,10.32,10.32,0,0,1,1.38-1C32.21,70.14,32.94,69.66,33.86,69Zm14.38,60a44.35,44.35,0,0,0,5.11-6.27q3-4.32,6-9.49a90.3,90.3,0,0,0,5.23-10.58,39.47,39.47,0,0,0,2.82-9.54,11.67,11.67,0,0,0-1.67-8.11,14.69,14.69,0,0,0-6.15-5.24,23.87,23.87,0,0,0-8.8-2.12,26.73,26.73,0,0,0-9.54,1.15,25.08,25.08,0,0,0-8.57,4.65A18.36,18.36,0,0,0,27,91.93a28.19,28.19,0,0,0-1,12.36q.81,7.18,5.52,16.5A13.85,13.85,0,0,0,33,123a7.2,7.2,0,0,0,1.9,1.61,9,9,0,0,0,2.93,1,25.35,25.35,0,0,0,4.66.35,3.06,3.06,0,0,1-.69.57A16.58,16.58,0,0,1,33.86,129a14.32,14.32,0,0,1-8.28-2.13,18.61,18.61,0,0,1-6.67-7.7q-2.76-5.35-3.1-14.32c-.39,1.92-1,4.52-1.79,7.82s-1.47,6.78-2,10.46A89,89,0,0,0,11.09,134a22.76,22.76,0,0,0,1.38,9.08,8.29,8.29,0,0,0,5,5q3.45,1.26,9.77-1.5a42.55,42.55,0,0,0,7.07-3.85,33.16,33.16,0,0,0,4.78-4q2.07-2.13,4.08-4.49A52.38,52.38,0,0,1,48.24,129.08Z"/></g><g id="cuerno"><path class="cls-1" d="M125.71,84.24s-79.79,71-83.61,75.69,37.07,23,50.26,8.69,33.08-54.78,33.7-39.77S123.49,163.56,126,175s42.84,23,55.9,23.51S161.37,158,150.07,91.25c0,0,60.38,10.77,67.91-61.25a142.92,142.92,0,0,1-24.72,12.4c-1.19.45-.19-2.2-1.42-1.79-2.11.72-6.47,4.46-8.65,5-6.64,1.71-13.46,2.56-19.65,1.67-12.26-1.77-27.44-8.55-37.4-19-8.69-9.12-13-21.68-13.44-27.77C112.17-6.22,58,53.21,125.71,84.24Z"/><path class="cls-1" d="M96.85,72.85a5.53,5.53,0,0,1-1.52-.22c-3.84-1.1-5.76-6.19-4.28-11.34,1.26-4.37,4.68-7.55,8.13-7.55h.26c-2.79,0-5.43,2.41-6.42,5.86-1.15,4,.41,8,3.5,8.89a4.41,4.41,0,0,0,1.26.18c2.79,0,5.43-2.41,6.42-5.85.13-.44.3-.91.49-1.42s.5-1.4.76-2.28a5.58,5.58,0,0,1,.09-.59A27.08,27.08,0,0,1,105,65.3C103.72,69.67,100.3,72.85,96.85,72.85Zm5.47-18.18a1,1,0,0,0-.42-.4c.23.09.4.2.44.37Z"/><path d="M93.82,56.9a10.31,10.31,0,0,0-1.16,2.61,9.26,9.26,0,0,0,.14,5.81,5.55,5.55,0,0,0,3.61,3.54,4.88,4.88,0,0,0,1.37.2c3,0,5.74-2.52,6.78-6.13.12-.42.29-.87.48-1.4,0-.09.06-.18.1-.27a20.66,20.66,0,0,1-.53,3.93c-1.21,4.22-4.47,7.28-7.76,7.28a5.24,5.24,0,0,1-1.42-.2c-3.64-1-5.44-5.92-4-10.87a11.81,11.81,0,0,1,2.41-4.5m5.36-3.53c-3.57,0-7.15,3.17-8.49,7.82-1.54,5.35.49,10.64,4.53,11.8a5.68,5.68,0,0,0,1.63.23c3.56,0,7.15-3.17,8.49-7.82.59-2.07.86-8,.28-8a.14.14,0,0,0-.09,0c-.3.27-.45,1.55-.45,1.55-.44,1.55-1,2.69-1.24,3.69-1,3.32-3.51,5.59-6.06,5.59a4.17,4.17,0,0,1-1.16-.17c-2.89-.83-4.34-4.6-3.24-8.43,1-3.32,3.52-5.58,6.06-5.58a4.16,4.16,0,0,1,1.16.16c.52.15,1.42.19,1.42.72,0,.3.06.41.14.41s.58-.73.55-.87c-.18-.69-1.21-.75-1.91-.95a5.61,5.61,0,0,0-1.62-.23Z"/><path class="cls-1" d="M107.51,77.65a3.5,3.5,0,0,1-.91-.12c-2.32-.67-3.47-3.77-2.57-6.91a15.31,15.31,0,0,1,1.35-2.81c-.07.28-.13.54-.18.79s-.13.63-.21.9a5.6,5.6,0,0,0,.09,3.56,3.37,3.37,0,0,0,2.18,2.16,2.92,2.92,0,0,0,.83.12c1.81,0,3.51-1.55,4.14-3.76a5.7,5.7,0,0,0,.08-3.06,7,7,0,0,1,.14,4.53C111.68,75.72,109.6,77.65,107.51,77.65Z"/><path d="M104.39,70.74c-.16,2.28.93,4.31,2.77,4.84a3.26,3.26,0,0,0,.93.13,4.74,4.74,0,0,0,4-2.74c-.73,2.5-2.65,4.31-4.57,4.31a2.72,2.72,0,0,1-.8-.12,3.49,3.49,0,0,1-2.23-2.25,6.57,6.57,0,0,1-.09-4.17M109,65.52a.52.52,0,0,0-.36.13c-.07.07-.12.65,0,.65s.1,0,.18-.17a.27.27,0,0,1,.25-.12,3.06,3.06,0,0,1,.74.21c1.8.52,2.7,2.87,2,5.26-.59,2.07-2.19,3.48-3.78,3.48a2.55,2.55,0,0,1-.72-.1c-1.8-.52-2.71-2.87-2-5.26.18-.63.29-1.4.57-2.36,0,0,.34-.73.27-1q0-.06-.06-.06c-.38,0-2.1,3.05-2.46,4.31-1,3.34.31,6.64,2.83,7.37a3.85,3.85,0,0,0,1,.14c2.23,0,4.46-2,5.3-4.88,1-3.34-.31-6.64-2.83-7.37a4.28,4.28,0,0,0-1-.26Z"/></g></g></svg>